<svg width="2061px" height="520px" viewBox="0 0 2061 520" version="1.1" xmlns="http://www.w3.org/2000/svg"
  xmlns:xlink="http://www.w3.org/1999/xlink">
  <defs>
    <linearGradient x1="79.522243%" y1="90.2162833%" x2="20.2393168%" y2="14.1534967%" id="linearGradient-4xlhv874ok-1">
      <stop stop-color="#AA1A14" offset="0%"></stop>
      <stop stop-color="#500C09" offset="52.2918488%"></stop>
      <stop stop-color="#000000" offset="100%"></stop>
    </linearGradient>
  </defs>
  <g id="Page-1" stroke="none" stroke-width="1" fill="none" fill-rule="evenodd">
    <g id="Group-2" transform="translate(10.000000, 10.000000)">
      <g id="explorer" transform="translate(587.440000, 82.100000)" fill="#FFFFFF" fill-rule="nonzero">
        <path
          d="M101.84,271.7 C80.8133333,271.7 62.7,267.773333 47.5,259.92 C32.3,252.066667 20.5833333,240.92 12.35,226.48 C4.11666667,212.04 0,194.94 0,175.18 C0,155.926667 3.99,139.08 11.97,124.64 C19.95,110.2 30.97,98.8633333 45.03,90.63 C59.09,82.3966667 75.1133333,78.28 93.1,78.28 C119.446667,78.28 140.283333,86.64 155.61,103.36 C170.936667,120.08 178.6,142.88 178.6,171.76 L178.6,185.82 L45.6,185.82 C49.1466667,219.006667 68.1466667,235.6 102.6,235.6 C112.986667,235.6 123.373333,234.016667 133.76,230.85 C144.146667,227.683333 153.646667,222.68 162.26,215.84 L175.56,247.76 C166.693333,255.106667 155.546667,260.933333 142.12,265.24 C128.693333,269.546667 115.266667,271.7 101.84,271.7 Z M95,110.58 C81.0666667,110.58 69.7933333,114.886667 61.18,123.5 C52.5666667,132.113333 47.3733333,143.766667 45.6,158.46 L139.08,158.46 C138.066667,143.006667 133.823333,131.163333 126.35,122.93 C118.876667,114.696667 108.426667,110.58 95,110.58 Z"
          id="Shape"></path>
        <polygon id="Path"
          points="189.24 267.9 267.14 171.76 194.18 82.08 249.66 82.08 294.5 139.46 339.34 82.08 394.82 82.08 321.48 172.14 399.76 267.9 343.9 267.9 294.12 205.2 244.72 267.9">
        </polygon>
        <path
          d="M422.56,336.3 L422.56,82.08 L468.92,82.08 L468.92,111.72 C474.24,101.586667 482.283333,93.48 493.05,87.4 C503.816667,81.32 516.04,78.28 529.72,78.28 C545.933333,78.28 560.183333,82.2066667 572.47,90.06 C584.756667,97.9133333 594.32,108.996667 601.16,123.31 C608,137.623333 611.42,154.786667 611.42,174.8 C611.42,194.56 608,211.723333 601.16,226.29 C594.32,240.856667 584.82,252.066667 572.66,259.92 C560.5,267.773333 546.186667,271.7 529.72,271.7 C516.546667,271.7 504.703333,268.85 494.19,263.15 C483.676667,257.45 475.633333,249.786667 470.06,240.16 L470.06,336.3 L422.56,336.3 Z M516.42,235.6 C530.606667,235.6 542.006667,230.47 550.62,220.21 C559.233333,209.95 563.54,194.813333 563.54,174.8 C563.54,154.533333 559.233333,139.396667 550.62,129.39 C542.006667,119.383333 530.606667,114.38 516.42,114.38 C502.233333,114.38 490.833333,119.383333 482.22,129.39 C473.606667,139.396667 469.3,154.533333 469.3,174.8 C469.3,194.813333 473.606667,209.95 482.22,220.21 C490.833333,230.47 502.233333,235.6 516.42,235.6 Z"
          id="Shape"></path>
        <path
          d="M715.16,271.7 C693.12,271.7 676.843333,265.683333 666.33,253.65 C655.816667,241.616667 650.56,223.946667 650.56,200.64 L650.56,0 L698.06,0 L698.06,198.36 C698.06,221.16 707.686667,232.56 726.94,232.56 C729.726667,232.56 732.513333,232.433333 735.3,232.18 C738.086667,231.926667 740.746667,231.42 743.28,230.66 L742.52,268.28 C733.4,270.56 724.28,271.7 715.16,271.7 Z"
          id="Path"></path>
        <path
          d="M854.62,271.7 C835.366667,271.7 818.646667,267.773333 804.46,259.92 C790.273333,252.066667 779.253333,240.856667 771.4,226.29 C763.546667,211.723333 759.62,194.56 759.62,174.8 C759.62,155.04 763.546667,137.94 771.4,123.5 C779.253333,109.06 790.273333,97.9133333 804.46,90.06 C818.646667,82.2066667 835.366667,78.28 854.62,78.28 C873.873333,78.28 890.593333,82.2066667 904.78,90.06 C918.966667,97.9133333 929.986667,109.06 937.84,123.5 C945.693333,137.94 949.62,155.04 949.62,174.8 C949.62,194.56 945.693333,211.723333 937.84,226.29 C929.986667,240.856667 918.966667,252.066667 904.78,259.92 C890.593333,267.773333 873.873333,271.7 854.62,271.7 Z M854.62,235.6 C868.806667,235.6 880.206667,230.47 888.82,220.21 C897.433333,209.95 901.74,194.813333 901.74,174.8 C901.74,154.533333 897.433333,139.396667 888.82,129.39 C880.206667,119.383333 868.806667,114.38 854.62,114.38 C840.433333,114.38 829.033333,119.383333 820.42,129.39 C811.806667,139.396667 807.5,154.533333 807.5,174.8 C807.5,194.813333 811.806667,209.95 820.42,220.21 C829.033333,230.47 840.433333,235.6 854.62,235.6 Z"
          id="Shape"></path>
        <path
          d="M988.76,267.9 L988.76,82.08 L1035.12,82.08 L1035.12,114.76 C1044.24,92.72 1063.74667,80.56 1093.64,78.28 L1108.08,77.14 L1111.12,117.42 L1083.76,120.08 C1052.6,123.12 1037.02,139.08 1037.02,167.96 L1037.02,267.9 L988.76,267.9 Z"
          id="Path"></path>
        <path
          d="M1226.26,271.7 C1205.23333,271.7 1187.12,267.773333 1171.92,259.92 C1156.72,252.066667 1145.00333,240.92 1136.77,226.48 C1128.53667,212.04 1124.42,194.94 1124.42,175.18 C1124.42,155.926667 1128.41,139.08 1136.39,124.64 C1144.37,110.2 1155.39,98.8633333 1169.45,90.63 C1183.51,82.3966667 1199.53333,78.28 1217.52,78.28 C1243.86667,78.28 1264.70333,86.64 1280.03,103.36 C1295.35667,120.08 1303.02,142.88 1303.02,171.76 L1303.02,185.82 L1170.02,185.82 C1173.56667,219.006667 1192.56667,235.6 1227.02,235.6 C1237.40667,235.6 1247.79333,234.016667 1258.18,230.85 C1268.56667,227.683333 1278.06667,222.68 1286.68,215.84 L1299.98,247.76 C1291.11333,255.106667 1279.96667,260.933333 1266.54,265.24 C1253.11333,269.546667 1239.68667,271.7 1226.26,271.7 Z M1219.42,110.58 C1205.48667,110.58 1194.21333,114.886667 1185.6,123.5 C1176.98667,132.113333 1171.79333,143.766667 1170.02,158.46 L1263.5,158.46 C1262.48667,143.006667 1258.24333,131.163333 1250.77,122.93 C1243.29667,114.696667 1232.84667,110.58 1219.42,110.58 Z"
          id="Shape"></path>
        <path
          d="M1340.64,267.9 L1340.64,82.08 L1387,82.08 L1387,114.76 C1396.12,92.72 1415.62667,80.56 1445.52,78.28 L1459.96,77.14 L1463,117.42 L1435.64,120.08 C1404.48,123.12 1388.9,139.08 1388.9,167.96 L1388.9,267.9 L1340.64,267.9 Z"
          id="Path"></path>
      </g>
      <g id="Group">
        <circle id="Oval" stroke="#FFFFFF" stroke-width="20" fill="url(#linearGradient-4xlhv874ok-1)" cx="250" cy="250"
          r="250"></circle>
        <path
          d="M75.1959031,351.424582 C75.2981028,351.614763 75.4879033,351.843955 75.7653032,351.843955 L156.946236,352 C157.019235,352 157.082502,351.98537 157.145769,351.946359 L157.184702,351.926853 C157.345302,351.834201 157.501035,351.639145 157.593502,351.4002 L178.559119,296.589281 L199.558803,239.252379 L201.447071,244.372616 L221.56102,299.27131 C221.867621,300.114931 221.921153,301.041449 221.711887,301.899698 L280,301.899698 L228.559293,167.364249 L221.380954,148.594923 C221.244687,148.234068 220.99162,148 220.733687,148 L177.498184,148 C177.240251,148 176.987184,148.234068 176.846051,148.594923 L118.008004,302.470239 C117.50187,303.791748 116.411736,304.645121 115.234002,304.645121 L92.7743171,304.684132 C92.5212502,304.684132 92.2681833,304.923076 92.1319166,305.279055 L75.1083036,350.02505 C74.9039028,350.571209 75.0207029,351.107616 75.1959031,351.424582 Z M343.456019,352 C343.199368,352 342.947558,351.765932 342.811968,351.405077 L272.208411,165.837931 L266.111711,149.809151 C265.903484,149.267868 266.019703,148.736339 266.189191,148.414495 C266.295727,148.224316 266.479741,148 266.755762,148 L323.011012,148 C323.26282,148 323.514631,148.234068 323.655063,148.590047 L382.205654,302.475116 C382.709273,303.791748 383.793992,304.645121 384.970717,304.645121 L407.309141,304.684132 C407.565793,304.684132 407.817603,304.923076 407.953192,305.283932 L424.892234,350.02505 C425.09562,350.571209 424.9794,351.107616 424.80507,351.424582 C424.698535,351.619639 424.514521,351.843955 424.238499,351.843955 L400.214887,351.804943 L399.924337,351.946359 C399.8517,351.980494 399.783905,352 399.716111,352 L343.456019,352"
          id="Shape" fill="#FFFFFF" fill-rule="nonzero"></path>
      </g>
    </g>
  </g>
</svg>