<svg xmlns="http://www.w3.org/2000/svg" xmlns:xlink="http://www.w3.org/1999/xlink" width="1440" zoomAndPan="magnify" viewBox="0 0 1080 277.499997" height="370" preserveAspectRatio="xMidYMid meet" version="1.0"><defs><g/></defs><g fill="#ffffff" fill-opacity="1"><g transform="translate(33.12117, 223.144131)"><g><path d="M 113.519531 -138.066406 L 113.519531 -153.160156 C 113.519531 -155.636719 111.492188 -157.4375 109.011719 -157.4375 L 15.542969 -157.4375 C 13.0625 -157.4375 11.035156 -155.410156 11.261719 -152.933594 C 11.488281 -143.25 12.164062 -118.023438 12.164062 -78.832031 C 12.164062 -39.640625 11.488281 -14.191406 11.261719 -4.503906 C 11.035156 -2.027344 13.0625 0.226562 15.542969 0.226562 L 109.011719 0.226562 C 111.492188 0.226562 113.519531 -1.800781 113.519531 -4.28125 L 113.519531 -19.371094 C 113.519531 -21.847656 111.492188 -23.648438 109.011719 -23.648438 L 50 -23.648438 C 47.75 -23.648438 45.722656 -25.675781 45.722656 -28.152344 C 45.496094 -37.390625 45.273438 -48.652344 45.273438 -62.390625 C 45.273438 -64.867188 47.300781 -66.894531 49.777344 -66.894531 L 97.074219 -66.894531 C 99.554688 -66.894531 101.582031 -68.695312 101.582031 -71.171875 L 101.582031 -86.265625 C 101.582031 -88.742188 99.554688 -90.542969 97.074219 -90.542969 L 49.777344 -90.542969 C 47.300781 -90.542969 45.273438 -92.570312 45.273438 -95.046875 C 45.273438 -108.789062 45.496094 -120.050781 45.722656 -129.285156 C 45.722656 -131.761719 47.75 -133.789062 50 -133.789062 L 109.011719 -133.789062 C 111.492188 -133.789062 113.519531 -135.589844 113.519531 -138.066406 Z M 113.519531 -138.066406 "/></g></g></g><g fill="#ffffff" fill-opacity="1"><g transform="translate(158.122181, 223.144131)"><g><path d="M 113.292969 -157.4375 L 88.515625 -157.4375 C 86.488281 -157.4375 84.914062 -156.3125 84.238281 -154.511719 C 82.433594 -149.105469 78.382812 -136.492188 71.171875 -117.796875 C 68.921875 -112.390625 67.121094 -107.4375 65.316406 -103.15625 C 64.867188 -101.804688 63.066406 -101.804688 62.613281 -103.15625 C 60.8125 -107.4375 58.785156 -112.390625 56.757812 -117.796875 C 49.550781 -136.492188 45.273438 -149.105469 43.695312 -154.511719 C 43.019531 -156.3125 41.441406 -157.4375 39.414062 -157.4375 L 14.414062 -157.4375 C 11.261719 -157.4375 9.007812 -154.058594 10.585938 -151.132812 C 13.738281 -144.601562 19.144531 -133.339844 26.128906 -117.796875 C 34.011719 -100.453125 38.738281 -88.742188 40.992188 -82.660156 C 41.894531 -80.183594 41.894531 -77.253906 40.992188 -74.777344 C 38.738281 -68.695312 34.011719 -56.984375 26.128906 -39.640625 C 19.144531 -24.101562 13.738281 -12.839844 10.585938 -6.304688 C 9.007812 -3.378906 11.261719 0.226562 14.414062 0.226562 L 39.414062 0.226562 C 41.441406 0.226562 43.019531 -1.125 43.695312 -2.929688 C 45.273438 -8.332031 49.550781 -20.945312 56.757812 -39.640625 C 58.785156 -45.046875 60.8125 -50 62.613281 -54.28125 C 63.066406 -55.632812 64.867188 -55.632812 65.316406 -54.28125 C 67.121094 -50 68.921875 -45.046875 71.171875 -39.640625 C 78.382812 -20.945312 82.433594 -8.332031 84.238281 -2.929688 C 84.914062 -1.125 86.488281 0.226562 88.515625 0.226562 L 113.292969 0.226562 C 116.671875 0.226562 118.921875 -3.378906 117.347656 -6.304688 C 114.191406 -12.839844 108.5625 -24.101562 101.582031 -39.640625 C 93.921875 -56.984375 89.191406 -68.695312 86.941406 -74.777344 C 85.8125 -77.253906 85.8125 -80.183594 86.941406 -82.660156 C 89.191406 -88.742188 93.921875 -100.453125 101.582031 -117.796875 C 108.5625 -133.339844 114.191406 -144.601562 117.347656 -151.132812 C 118.921875 -154.058594 116.671875 -157.4375 113.292969 -157.4375 Z M 113.292969 -157.4375 "/></g></g></g><g fill="#ffffff" fill-opacity="1"><g transform="translate(286.276375, 223.144131)"><g><path d="M 65.992188 -157.4375 L 46.398438 -157.4375 L 46.398438 -157.664062 L 15.542969 -157.664062 C 13.0625 -157.664062 11.035156 -155.410156 11.261719 -152.933594 C 11.488281 -143.25 12.164062 -118.023438 12.164062 -78.832031 C 12.164062 -39.640625 11.488281 -14.191406 11.261719 -4.503906 C 11.035156 -2.027344 13.0625 0 15.542969 0 L 41.894531 0 C 44.371094 0 46.398438 -2.027344 46.171875 -4.503906 C 45.949219 -12.164062 45.496094 -29.730469 45.273438 -56.082031 C 45.273438 -58.5625 47.300781 -60.585938 49.777344 -60.585938 L 65.992188 -60.585938 C 107.4375 -60.585938 120.949219 -77.480469 120.949219 -108.113281 C 120.949219 -138.742188 107.4375 -157.4375 65.992188 -157.4375 Z M 66.445312 -84.460938 L 49.777344 -84.460938 C 47.300781 -84.460938 45.273438 -86.488281 45.273438 -88.96875 C 45.273438 -105.183594 45.496094 -118.699219 45.722656 -129.285156 C 45.722656 -131.761719 47.75 -133.789062 50 -133.789062 L 66.445312 -133.789062 C 85.136719 -133.789062 85.363281 -118.246094 85.363281 -108.113281 C 85.363281 -97.976562 85.136719 -84.460938 66.445312 -84.460938 Z M 66.445312 -84.460938 "/></g></g></g><g fill="#ffffff" fill-opacity="1"><g transform="translate(418.709873, 223.144131)"><g><path d="M 44.597656 -28.152344 C 45.046875 -79.507812 46.171875 -136.714844 46.625 -152.933594 C 46.625 -155.410156 44.597656 -157.4375 42.117188 -157.4375 L 15.542969 -157.4375 C 13.0625 -157.4375 11.261719 -155.636719 11.261719 -153.160156 L 11.261719 -4.28125 C 11.261719 -1.800781 13.0625 0 15.542969 0 L 93.019531 0 C 95.5 0 97.300781 -1.800781 97.300781 -4.28125 L 97.300781 -19.371094 C 97.300781 -21.847656 95.5 -23.648438 93.019531 -23.648438 L 49.101562 -23.648438 C 46.625 -23.648438 44.597656 -25.675781 44.597656 -28.152344 Z M 44.597656 -28.152344 "/></g></g></g><g fill="#ffffff" fill-opacity="1"><g transform="translate(526.368398, 223.144131)"><g><path d="M 120.949219 -110.140625 C 120.949219 -134.691406 107.4375 -159.464844 65.992188 -159.464844 C 25.453125 -159.464844 11.261719 -138.742188 11.261719 -110.140625 C 11.261719 -100.453125 12.164062 -94.148438 12.164062 -78.605469 C 12.164062 -63.289062 11.261719 -56.984375 11.261719 -47.300781 C 11.261719 -22.523438 24.777344 2.027344 65.992188 2.027344 C 106.761719 2.027344 120.949219 -18.695312 120.949219 -47.300781 C 120.949219 -56.984375 119.824219 -63.289062 119.824219 -78.605469 C 119.824219 -94.148438 120.949219 -100.453125 120.949219 -110.140625 Z M 65.542969 -21.847656 C 46.847656 -21.847656 46.625 -41.894531 46.625 -47.300781 L 46.625 -110.140625 C 46.625 -121.402344 48.652344 -135.589844 66.445312 -135.589844 C 85.136719 -135.589844 85.363281 -115.542969 85.363281 -110.140625 L 85.363281 -47.300781 C 85.363281 -36.039062 83.5625 -21.847656 65.542969 -21.847656 Z M 65.542969 -21.847656 "/></g></g></g><g fill="#ffffff" fill-opacity="1"><g transform="translate(658.801926, 223.144131)"><g><path d="M 115.542969 0 C 118.246094 0 120.5 -2.253906 120.050781 -4.957031 C 119.375 -11.035156 118.246094 -22.972656 118.246094 -38.964844 C 118.246094 -55.859375 109.6875 -65.769531 98.203125 -71.398438 C 96.851562 -72.074219 96.851562 -73.875 98.203125 -74.550781 C 110.589844 -81.085938 119.375 -92.570312 119.375 -110.140625 C 119.375 -148.878906 94.148438 -157.4375 64.640625 -157.4375 L 46.398438 -157.4375 L 46.398438 -157.664062 L 15.542969 -157.664062 C 13.0625 -157.664062 11.035156 -155.410156 11.261719 -152.933594 C 11.488281 -143.25 12.164062 -118.023438 12.164062 -78.832031 C 12.164062 -39.640625 11.488281 -14.191406 11.261719 -4.503906 C 11.035156 -2.027344 13.0625 0 15.542969 0 L 41.894531 0 C 44.371094 0 46.398438 -2.027344 46.171875 -4.503906 C 45.949219 -12.164062 45.496094 -29.730469 45.273438 -56.082031 C 45.273438 -58.5625 47.300781 -60.585938 49.777344 -60.585938 L 63.742188 -60.585938 C 78.605469 -60.585938 82.660156 -49.101562 82.660156 -39.191406 L 82.660156 -4.28125 C 82.660156 -1.800781 84.6875 0 87.164062 0 Z M 65.09375 -133.789062 C 72.074219 -133.789062 84.011719 -128.382812 84.011719 -110.140625 C 84.011719 -100.003906 79.957031 -84.460938 65.09375 -84.460938 L 49.777344 -84.460938 C 47.300781 -84.460938 45.273438 -86.488281 45.273438 -88.96875 C 45.273438 -105.183594 45.496094 -118.699219 45.722656 -129.285156 C 45.722656 -131.761719 47.75 -133.789062 50.226562 -133.789062 Z M 65.09375 -133.789062 "/></g></g></g><g fill="#ffffff" fill-opacity="1"><g transform="translate(790.334546, 223.144131)"><g><path d="M 113.519531 -138.066406 L 113.519531 -153.160156 C 113.519531 -155.636719 111.492188 -157.4375 109.011719 -157.4375 L 15.542969 -157.4375 C 13.0625 -157.4375 11.035156 -155.410156 11.261719 -152.933594 C 11.488281 -143.25 12.164062 -118.023438 12.164062 -78.832031 C 12.164062 -39.640625 11.488281 -14.191406 11.261719 -4.503906 C 11.035156 -2.027344 13.0625 0.226562 15.542969 0.226562 L 109.011719 0.226562 C 111.492188 0.226562 113.519531 -1.800781 113.519531 -4.28125 L 113.519531 -19.371094 C 113.519531 -21.847656 111.492188 -23.648438 109.011719 -23.648438 L 50 -23.648438 C 47.75 -23.648438 45.722656 -25.675781 45.722656 -28.152344 C 45.496094 -37.390625 45.273438 -48.652344 45.273438 -62.390625 C 45.273438 -64.867188 47.300781 -66.894531 49.777344 -66.894531 L 97.074219 -66.894531 C 99.554688 -66.894531 101.582031 -68.695312 101.582031 -71.171875 L 101.582031 -86.265625 C 101.582031 -88.742188 99.554688 -90.542969 97.074219 -90.542969 L 49.777344 -90.542969 C 47.300781 -90.542969 45.273438 -92.570312 45.273438 -95.046875 C 45.273438 -108.789062 45.496094 -120.050781 45.722656 -129.285156 C 45.722656 -131.761719 47.75 -133.789062 50 -133.789062 L 109.011719 -133.789062 C 111.492188 -133.789062 113.519531 -135.589844 113.519531 -138.066406 Z M 113.519531 -138.066406 "/></g></g></g><g fill="#ffffff" fill-opacity="1"><g transform="translate(915.335542, 223.144131)"><g><path d="M 115.542969 0 C 118.246094 0 120.5 -2.253906 120.050781 -4.957031 C 119.375 -11.035156 118.246094 -22.972656 118.246094 -38.964844 C 118.246094 -55.859375 109.6875 -65.769531 98.203125 -71.398438 C 96.851562 -72.074219 96.851562 -73.875 98.203125 -74.550781 C 110.589844 -81.085938 119.375 -92.570312 119.375 -110.140625 C 119.375 -148.878906 94.148438 -157.4375 64.640625 -157.4375 L 46.398438 -157.4375 L 46.398438 -157.664062 L 15.542969 -157.664062 C 13.0625 -157.664062 11.035156 -155.410156 11.261719 -152.933594 C 11.488281 -143.25 12.164062 -118.023438 12.164062 -78.832031 C 12.164062 -39.640625 11.488281 -14.191406 11.261719 -4.503906 C 11.035156 -2.027344 13.0625 0 15.542969 0 L 41.894531 0 C 44.371094 0 46.398438 -2.027344 46.171875 -4.503906 C 45.949219 -12.164062 45.496094 -29.730469 45.273438 -56.082031 C 45.273438 -58.5625 47.300781 -60.585938 49.777344 -60.585938 L 63.742188 -60.585938 C 78.605469 -60.585938 82.660156 -49.101562 82.660156 -39.191406 L 82.660156 -4.28125 C 82.660156 -1.800781 84.6875 0 87.164062 0 Z M 65.09375 -133.789062 C 72.074219 -133.789062 84.011719 -128.382812 84.011719 -110.140625 C 84.011719 -100.003906 79.957031 -84.460938 65.09375 -84.460938 L 49.777344 -84.460938 C 47.300781 -84.460938 45.273438 -86.488281 45.273438 -88.96875 C 45.273438 -105.183594 45.496094 -118.699219 45.722656 -129.285156 C 45.722656 -131.761719 47.75 -133.789062 50.226562 -133.789062 Z M 65.09375 -133.789062 "/></g></g></g></svg>