<svg xmlns="http://www.w3.org/2000/svg" xmlns:xlink="http://www.w3.org/1999/xlink" width="1440" zoomAndPan="magnify" viewBox="0 0 1080 277.499997" height="370" preserveAspectRatio="xMidYMid meet" version="1.0"><defs><g/><clipPath id="e86f212622"><path d="M 18.3125 53.09375 L 176.867188 53.09375 L 176.867188 211.648438 L 18.3125 211.648438 Z M 18.3125 53.09375 " clip-rule="nonzero"/></clipPath><clipPath id="8070596ff1"><path d="M 35.496094 96.128906 L 159.8125 96.128906 L 159.8125 168.59375 L 35.496094 168.59375 Z M 35.496094 96.128906 " clip-rule="nonzero"/></clipPath></defs><g clip-path="url(#e86f212622)"><path fill="#3d3d3d" d="M 176.867188 132.371094 C 176.867188 133.667969 176.832031 134.964844 176.769531 136.257812 C 176.707031 137.554688 176.609375 138.847656 176.484375 140.140625 C 176.355469 141.433594 176.199219 142.71875 176.007812 144.003906 C 175.816406 145.285156 175.59375 146.5625 175.34375 147.835938 C 175.089844 149.109375 174.804688 150.375 174.488281 151.632812 C 174.175781 152.890625 173.828125 154.140625 173.453125 155.382812 C 173.074219 156.625 172.667969 157.855469 172.230469 159.078125 C 171.792969 160.300781 171.328125 161.507812 170.832031 162.707031 C 170.335938 163.90625 169.808594 165.09375 169.253906 166.265625 C 168.699219 167.4375 168.117188 168.597656 167.503906 169.742188 C 166.890625 170.886719 166.253906 172.015625 165.585938 173.125 C 164.917969 174.238281 164.226562 175.335938 163.503906 176.414062 C 162.785156 177.492188 162.035156 178.554688 161.265625 179.597656 C 160.492188 180.636719 159.695312 181.660156 158.871094 182.664062 C 158.046875 183.664062 157.199219 184.648438 156.328125 185.609375 C 155.457031 186.570312 154.5625 187.507812 153.644531 188.425781 C 152.726562 189.34375 151.789062 190.238281 150.828125 191.109375 C 149.867188 191.980469 148.882812 192.828125 147.882812 193.652344 C 146.878906 194.476562 145.855469 195.273438 144.8125 196.046875 C 143.773438 196.816406 142.710938 197.566406 141.632812 198.285156 C 140.554688 199.007812 139.457031 199.699219 138.34375 200.367188 C 137.234375 201.035156 136.105469 201.675781 134.960938 202.285156 C 133.816406 202.898438 132.65625 203.480469 131.484375 204.035156 C 130.3125 204.589844 129.125 205.117188 127.925781 205.613281 C 126.726562 206.109375 125.515625 206.574219 124.292969 207.015625 C 123.074219 207.449219 121.839844 207.855469 120.601562 208.234375 C 119.359375 208.609375 118.109375 208.957031 116.851562 209.269531 C 115.59375 209.585938 114.328125 209.871094 113.054688 210.125 C 111.78125 210.378906 110.503906 210.597656 109.222656 210.789062 C 107.9375 210.980469 106.648438 211.140625 105.359375 211.265625 C 104.066406 211.390625 102.773438 211.488281 101.476562 211.550781 C 100.183594 211.617188 98.886719 211.648438 97.589844 211.648438 C 96.289062 211.648438 94.992188 211.617188 93.699219 211.550781 C 92.402344 211.488281 91.109375 211.390625 89.816406 211.265625 C 88.527344 211.140625 87.238281 210.980469 85.953125 210.789062 C 84.671875 210.597656 83.394531 210.378906 82.121094 210.125 C 80.847656 209.871094 79.582031 209.585938 78.324219 209.269531 C 77.066406 208.957031 75.816406 208.609375 74.574219 208.234375 C 73.332031 207.855469 72.101562 207.449219 70.878906 207.015625 C 69.660156 206.574219 68.449219 206.109375 67.25 205.613281 C 66.050781 205.117188 64.863281 204.589844 63.691406 204.035156 C 62.519531 203.480469 61.359375 202.898438 60.214844 202.285156 C 59.070312 201.675781 57.945312 201.035156 56.832031 200.367188 C 55.71875 199.699219 54.621094 199.007812 53.542969 198.285156 C 52.464844 197.566406 51.402344 196.816406 50.363281 196.046875 C 49.320312 195.273438 48.296875 194.476562 47.292969 193.652344 C 46.292969 192.828125 45.308594 191.980469 44.347656 191.109375 C 43.386719 190.238281 42.449219 189.34375 41.53125 188.425781 C 40.613281 187.507812 39.71875 186.570312 38.847656 185.609375 C 37.976562 184.648438 37.128906 183.664062 36.304688 182.664062 C 35.480469 181.660156 34.683594 180.636719 33.910156 179.597656 C 33.140625 178.554688 32.390625 177.492188 31.671875 176.414062 C 30.949219 175.335938 30.257812 174.238281 29.589844 173.125 C 28.921875 172.015625 28.28125 170.886719 27.671875 169.742188 C 27.058594 168.597656 26.476562 167.4375 25.921875 166.265625 C 25.367188 165.09375 24.839844 163.90625 24.34375 162.707031 C 23.847656 161.507812 23.382812 160.300781 22.945312 159.078125 C 22.507812 157.855469 22.101562 156.625 21.722656 155.382812 C 21.347656 154.140625 21 152.890625 20.6875 151.632812 C 20.371094 150.375 20.085938 149.109375 19.832031 147.835938 C 19.578125 146.5625 19.359375 145.285156 19.167969 144.003906 C 18.976562 142.71875 18.816406 141.433594 18.691406 140.140625 C 18.566406 138.847656 18.46875 137.554688 18.40625 136.257812 C 18.34375 134.964844 18.3125 133.667969 18.3125 132.371094 C 18.3125 131.070312 18.34375 129.777344 18.40625 128.480469 C 18.46875 127.183594 18.566406 125.890625 18.691406 124.597656 C 18.816406 123.308594 18.976562 122.019531 19.167969 120.738281 C 19.359375 119.453125 19.578125 118.175781 19.832031 116.902344 C 20.085938 115.632812 20.371094 114.367188 20.6875 113.105469 C 21 111.847656 21.347656 110.597656 21.722656 109.355469 C 22.101562 108.117188 22.507812 106.882812 22.945312 105.664062 C 23.382812 104.441406 23.847656 103.230469 24.34375 102.03125 C 24.839844 100.832031 25.367188 99.644531 25.921875 98.472656 C 26.476562 97.300781 27.058594 96.140625 27.671875 94.996094 C 28.28125 93.855469 28.921875 92.726562 29.589844 91.613281 C 30.257812 90.5 30.949219 89.40625 31.671875 88.324219 C 32.390625 87.246094 33.140625 86.1875 33.910156 85.144531 C 34.683594 84.101562 35.480469 83.078125 36.304688 82.074219 C 37.128906 81.074219 37.976562 80.09375 38.847656 79.128906 C 39.71875 78.167969 40.613281 77.230469 41.53125 76.3125 C 42.449219 75.394531 43.386719 74.5 44.347656 73.628906 C 45.308594 72.757812 46.292969 71.910156 47.292969 71.085938 C 48.296875 70.261719 49.320312 69.464844 50.363281 68.691406 C 51.402344 67.921875 52.464844 67.171875 53.542969 66.453125 C 54.621094 65.734375 55.71875 65.039062 56.832031 64.371094 C 57.945312 63.703125 59.070312 63.066406 60.214844 62.453125 C 61.359375 61.839844 62.519531 61.257812 63.691406 60.703125 C 64.863281 60.148438 66.050781 59.625 67.25 59.125 C 68.449219 58.628906 69.660156 58.164062 70.878906 57.726562 C 72.101562 57.289062 73.332031 56.882812 74.574219 56.503906 C 75.816406 56.128906 77.066406 55.785156 78.324219 55.46875 C 79.582031 55.152344 80.847656 54.871094 82.121094 54.613281 C 83.394531 54.363281 84.671875 54.140625 85.953125 53.949219 C 87.238281 53.757812 88.527344 53.601562 89.816406 53.472656 C 91.109375 53.347656 92.402344 53.25 93.699219 53.1875 C 94.992188 53.125 96.289062 53.09375 97.589844 53.09375 C 98.886719 53.09375 100.183594 53.125 101.476562 53.1875 C 102.773438 53.25 104.066406 53.347656 105.359375 53.472656 C 106.648438 53.601562 107.9375 53.757812 109.222656 53.949219 C 110.503906 54.140625 111.78125 54.363281 113.054688 54.613281 C 114.328125 54.871094 115.59375 55.152344 116.851562 55.46875 C 118.109375 55.785156 119.359375 56.128906 120.601562 56.503906 C 121.839844 56.882812 123.074219 57.289062 124.292969 57.726562 C 125.515625 58.164062 126.726562 58.628906 127.925781 59.125 C 129.125 59.625 130.3125 60.148438 131.484375 60.703125 C 132.65625 61.257812 133.816406 61.839844 134.960938 62.453125 C 136.105469 63.066406 137.234375 63.703125 138.34375 64.371094 C 139.457031 65.039062 140.554688 65.734375 141.632812 66.453125 C 142.710938 67.171875 143.773438 67.921875 144.8125 68.691406 C 145.855469 69.464844 146.878906 70.261719 147.882812 71.085938 C 148.882812 71.910156 149.867188 72.757812 150.828125 73.628906 C 151.789062 74.5 152.726562 75.394531 153.644531 76.3125 C 154.5625 77.230469 155.457031 78.167969 156.328125 79.128906 C 157.199219 80.09375 158.046875 81.074219 158.871094 82.074219 C 159.695312 83.078125 160.492188 84.101562 161.265625 85.144531 C 162.035156 86.1875 162.785156 87.246094 163.503906 88.324219 C 164.226562 89.40625 164.917969 90.5 165.585938 91.613281 C 166.253906 92.726562 166.890625 93.855469 167.503906 94.996094 C 168.117188 96.140625 168.699219 97.300781 169.253906 98.472656 C 169.808594 99.644531 170.335938 100.832031 170.832031 102.03125 C 171.328125 103.230469 171.792969 104.441406 172.230469 105.664062 C 172.667969 106.882812 173.074219 108.117188 173.453125 109.355469 C 173.828125 110.597656 174.175781 111.847656 174.488281 113.105469 C 174.804688 114.367188 175.089844 115.632812 175.34375 116.902344 C 175.59375 118.175781 175.816406 119.453125 176.007812 120.738281 C 176.199219 122.019531 176.355469 123.308594 176.484375 124.597656 C 176.609375 125.890625 176.707031 127.183594 176.769531 128.480469 C 176.832031 129.777344 176.867188 131.070312 176.867188 132.371094 Z M 176.867188 132.371094 " fill-opacity="1" fill-rule="nonzero"/></g><g clip-path="url(#8070596ff1)"><path fill="#ffffff" d="M 35.601562 168.363281 C 35.636719 168.433594 35.703125 168.515625 35.804688 168.515625 L 64.683594 168.570312 C 64.707031 168.570312 64.730469 168.5625 64.753906 168.550781 L 64.765625 168.542969 C 64.824219 168.511719 64.878906 168.441406 64.914062 168.355469 L 72.371094 148.898438 L 79.839844 128.542969 L 80.511719 130.359375 L 87.667969 149.847656 C 87.777344 150.148438 87.796875 150.476562 87.722656 150.78125 L 108.457031 150.78125 L 90.15625 103.019531 L 87.605469 96.355469 C 87.554688 96.226562 87.464844 96.144531 87.375 96.144531 L 71.992188 96.144531 C 71.902344 96.144531 71.8125 96.226562 71.761719 96.355469 L 50.832031 150.984375 C 50.652344 151.453125 50.261719 151.757812 49.84375 151.757812 L 41.855469 151.769531 C 41.765625 151.769531 41.675781 151.855469 41.625 151.980469 L 35.570312 167.867188 C 35.496094 168.0625 35.539062 168.253906 35.601562 168.363281 Z M 130.625 168.570312 C 130.53125 168.570312 130.441406 168.488281 130.394531 168.359375 L 105.152344 102.476562 L 102.972656 96.785156 C 102.898438 96.59375 102.941406 96.40625 103 96.292969 C 103.039062 96.222656 103.105469 96.144531 103.203125 96.144531 L 123.316406 96.144531 C 123.40625 96.144531 123.496094 96.226562 123.546875 96.355469 L 144.476562 150.988281 C 144.65625 151.453125 145.046875 151.757812 145.464844 151.757812 L 153.453125 151.769531 C 153.542969 151.769531 153.632812 151.855469 153.683594 151.984375 L 159.738281 167.867188 C 159.8125 168.0625 159.769531 168.253906 159.707031 168.363281 C 159.667969 168.433594 159.605469 168.515625 159.503906 168.515625 L 150.917969 168.5 L 150.8125 168.550781 C 150.785156 168.5625 150.761719 168.570312 150.738281 168.570312 L 130.625 168.570312 " fill-opacity="1" fill-rule="nonzero"/></g><g fill="#3d3d3d" fill-opacity="1"><g transform="translate(196.79413, 198.756894)"><g><path d="M 98.222656 -119.46875 L 98.222656 -132.523438 C 98.222656 -134.667969 96.46875 -136.226562 94.328125 -136.226562 L 13.449219 -136.226562 C 11.304688 -136.226562 9.550781 -134.472656 9.746094 -132.328125 C 9.9375 -123.949219 10.523438 -102.121094 10.523438 -68.210938 C 10.523438 -34.300781 9.9375 -12.277344 9.746094 -3.898438 C 9.550781 -1.753906 11.304688 0.195312 13.449219 0.195312 L 94.328125 0.195312 C 96.46875 0.195312 98.222656 -1.558594 98.222656 -3.703125 L 98.222656 -16.761719 C 98.222656 -18.902344 96.46875 -20.464844 94.328125 -20.464844 L 43.265625 -20.464844 C 41.316406 -20.464844 39.5625 -22.21875 39.5625 -24.359375 C 39.367188 -32.351562 39.171875 -42.097656 39.171875 -53.984375 C 39.171875 -56.128906 40.925781 -57.882812 43.070312 -57.882812 L 83.996094 -57.882812 C 86.140625 -57.882812 87.894531 -59.441406 87.894531 -61.585938 L 87.894531 -74.644531 C 87.894531 -76.785156 86.140625 -78.34375 83.996094 -78.34375 L 43.070312 -78.34375 C 40.925781 -78.34375 39.171875 -80.097656 39.171875 -82.242188 C 39.171875 -94.132812 39.367188 -103.875 39.5625 -111.867188 C 39.5625 -114.011719 41.316406 -115.765625 43.265625 -115.765625 L 94.328125 -115.765625 C 96.46875 -115.765625 98.222656 -117.324219 98.222656 -119.46875 Z M 98.222656 -119.46875 "/></g></g></g><g fill="#3d3d3d" fill-opacity="1"><g transform="translate(304.954763, 198.756894)"><g><path d="M 98.03125 -136.226562 L 76.589844 -136.226562 C 74.835938 -136.226562 73.472656 -135.253906 72.890625 -133.695312 C 71.328125 -129.015625 67.820312 -118.101562 61.585938 -101.925781 C 59.636719 -97.25 58.078125 -92.960938 56.519531 -89.257812 C 56.128906 -88.089844 54.570312 -88.089844 54.179688 -89.257812 C 52.621094 -92.960938 50.867188 -97.25 49.113281 -101.925781 C 42.875 -118.101562 39.171875 -129.015625 37.808594 -133.695312 C 37.222656 -135.253906 35.859375 -136.226562 34.105469 -136.226562 L 12.472656 -136.226562 C 9.746094 -136.226562 7.796875 -133.304688 9.160156 -130.769531 C 11.886719 -125.117188 16.566406 -115.375 22.605469 -101.925781 C 29.429688 -86.921875 33.519531 -76.785156 35.46875 -71.523438 C 36.25 -69.378906 36.25 -66.847656 35.46875 -64.703125 C 33.519531 -59.441406 29.429688 -49.308594 22.605469 -34.300781 C 16.566406 -20.851562 11.886719 -11.109375 9.160156 -5.457031 C 7.796875 -2.921875 9.746094 0.195312 12.472656 0.195312 L 34.105469 0.195312 C 35.859375 0.195312 37.222656 -0.972656 37.808594 -2.535156 C 39.171875 -7.210938 42.875 -18.125 49.113281 -34.300781 C 50.867188 -38.976562 52.621094 -43.265625 54.179688 -46.96875 C 54.570312 -48.136719 56.128906 -48.136719 56.519531 -46.96875 C 58.078125 -43.265625 59.636719 -38.976562 61.585938 -34.300781 C 67.820312 -18.125 71.328125 -7.210938 72.890625 -2.535156 C 73.472656 -0.972656 74.835938 0.195312 76.589844 0.195312 L 98.03125 0.195312 C 100.953125 0.195312 102.902344 -2.921875 101.539062 -5.457031 C 98.808594 -11.109375 93.9375 -20.851562 87.894531 -34.300781 C 81.269531 -49.308594 77.175781 -59.441406 75.226562 -64.703125 C 74.253906 -66.847656 74.253906 -69.378906 75.226562 -71.523438 C 77.175781 -76.785156 81.269531 -86.921875 87.894531 -101.925781 C 93.9375 -115.375 98.808594 -125.117188 101.539062 -130.769531 C 102.902344 -133.304688 100.953125 -136.226562 98.03125 -136.226562 Z M 98.03125 -136.226562 "/></g></g></g><g fill="#3d3d3d" fill-opacity="1"><g transform="translate(415.843776, 198.756894)"><g><path d="M 57.101562 -136.226562 L 40.148438 -136.226562 L 40.148438 -136.421875 L 13.449219 -136.421875 C 11.304688 -136.421875 9.550781 -134.472656 9.746094 -132.328125 C 9.9375 -123.949219 10.523438 -102.121094 10.523438 -68.210938 C 10.523438 -34.300781 9.9375 -12.277344 9.746094 -3.898438 C 9.550781 -1.753906 11.304688 0 13.449219 0 L 36.25 0 C 38.394531 0 40.148438 -1.753906 39.953125 -3.898438 C 39.757812 -10.523438 39.367188 -25.726562 39.171875 -48.527344 C 39.171875 -50.671875 40.925781 -52.425781 43.070312 -52.425781 L 57.101562 -52.425781 C 92.960938 -52.425781 104.65625 -67.042969 104.65625 -93.546875 C 104.65625 -120.050781 92.960938 -136.226562 57.101562 -136.226562 Z M 57.492188 -73.082031 L 43.070312 -73.082031 C 40.925781 -73.082031 39.171875 -74.835938 39.171875 -76.980469 C 39.171875 -91.011719 39.367188 -102.707031 39.5625 -111.867188 C 39.5625 -114.011719 41.316406 -115.765625 43.265625 -115.765625 L 57.492188 -115.765625 C 73.667969 -115.765625 73.863281 -102.316406 73.863281 -93.546875 C 73.863281 -84.777344 73.667969 -73.082031 57.492188 -73.082031 Z M 57.492188 -73.082031 "/></g></g></g><g fill="#3d3d3d" fill-opacity="1"><g transform="translate(530.435576, 198.756894)"><g><path d="M 38.589844 -24.359375 C 38.976562 -68.796875 39.953125 -118.296875 40.34375 -132.328125 C 40.34375 -134.472656 38.589844 -136.226562 36.445312 -136.226562 L 13.449219 -136.226562 C 11.304688 -136.226562 9.746094 -134.667969 9.746094 -132.523438 L 9.746094 -3.703125 C 9.746094 -1.558594 11.304688 0 13.449219 0 L 80.488281 0 C 82.632812 0 84.191406 -1.558594 84.191406 -3.703125 L 84.191406 -16.761719 C 84.191406 -18.902344 82.632812 -20.464844 80.488281 -20.464844 L 42.484375 -20.464844 C 40.34375 -20.464844 38.589844 -22.21875 38.589844 -24.359375 Z M 38.589844 -24.359375 "/></g></g></g><g fill="#3d3d3d" fill-opacity="1"><g transform="translate(623.590136, 198.756894)"><g><path d="M 104.65625 -95.300781 C 104.65625 -116.542969 92.960938 -137.980469 57.101562 -137.980469 C 22.023438 -137.980469 9.746094 -120.050781 9.746094 -95.300781 C 9.746094 -86.921875 10.523438 -81.464844 10.523438 -68.015625 C 10.523438 -54.765625 9.746094 -49.308594 9.746094 -40.925781 C 9.746094 -19.488281 21.4375 1.753906 57.101562 1.753906 C 92.378906 1.753906 104.65625 -16.175781 104.65625 -40.925781 C 104.65625 -49.308594 103.679688 -54.765625 103.679688 -68.015625 C 103.679688 -81.464844 104.65625 -86.921875 104.65625 -95.300781 Z M 56.710938 -18.902344 C 40.535156 -18.902344 40.34375 -36.25 40.34375 -40.925781 L 40.34375 -95.300781 C 40.34375 -105.046875 42.097656 -117.324219 57.492188 -117.324219 C 73.667969 -117.324219 73.863281 -99.976562 73.863281 -95.300781 L 73.863281 -40.925781 C 73.863281 -31.183594 72.304688 -18.902344 56.710938 -18.902344 Z M 56.710938 -18.902344 "/></g></g></g><g fill="#3d3d3d" fill-opacity="1"><g transform="translate(738.181963, 198.756894)"><g><path d="M 99.976562 0 C 102.316406 0 104.265625 -1.949219 103.875 -4.289062 C 103.292969 -9.550781 102.316406 -19.878906 102.316406 -33.714844 C 102.316406 -48.332031 94.910156 -56.90625 84.972656 -61.78125 C 83.800781 -62.363281 83.800781 -63.921875 84.972656 -64.507812 C 95.691406 -70.160156 103.292969 -80.097656 103.292969 -95.300781 C 103.292969 -128.820312 81.464844 -136.226562 55.933594 -136.226562 L 40.148438 -136.226562 L 40.148438 -136.421875 L 13.449219 -136.421875 C 11.304688 -136.421875 9.550781 -134.472656 9.746094 -132.328125 C 9.9375 -123.949219 10.523438 -102.121094 10.523438 -68.210938 C 10.523438 -34.300781 9.9375 -12.277344 9.746094 -3.898438 C 9.550781 -1.753906 11.304688 0 13.449219 0 L 36.25 0 C 38.394531 0 40.148438 -1.753906 39.953125 -3.898438 C 39.757812 -10.523438 39.367188 -25.726562 39.171875 -48.527344 C 39.171875 -50.671875 40.925781 -52.425781 43.070312 -52.425781 L 55.152344 -52.425781 C 68.015625 -52.425781 71.523438 -42.484375 71.523438 -33.910156 L 71.523438 -3.703125 C 71.523438 -1.558594 73.277344 0 75.421875 0 Z M 56.324219 -115.765625 C 62.363281 -115.765625 72.695312 -111.085938 72.695312 -95.300781 C 72.695312 -86.53125 69.1875 -73.082031 56.324219 -73.082031 L 43.070312 -73.082031 C 40.925781 -73.082031 39.171875 -74.835938 39.171875 -76.980469 C 39.171875 -91.011719 39.367188 -102.707031 39.5625 -111.867188 C 39.5625 -114.011719 41.316406 -115.765625 43.460938 -115.765625 Z M 56.324219 -115.765625 "/></g></g></g><g fill="#3d3d3d" fill-opacity="1"><g transform="translate(851.994253, 198.756894)"><g><path d="M 98.222656 -119.46875 L 98.222656 -132.523438 C 98.222656 -134.667969 96.46875 -136.226562 94.328125 -136.226562 L 13.449219 -136.226562 C 11.304688 -136.226562 9.550781 -134.472656 9.746094 -132.328125 C 9.9375 -123.949219 10.523438 -102.121094 10.523438 -68.210938 C 10.523438 -34.300781 9.9375 -12.277344 9.746094 -3.898438 C 9.550781 -1.753906 11.304688 0.195312 13.449219 0.195312 L 94.328125 0.195312 C 96.46875 0.195312 98.222656 -1.558594 98.222656 -3.703125 L 98.222656 -16.761719 C 98.222656 -18.902344 96.46875 -20.464844 94.328125 -20.464844 L 43.265625 -20.464844 C 41.316406 -20.464844 39.5625 -22.21875 39.5625 -24.359375 C 39.367188 -32.351562 39.171875 -42.097656 39.171875 -53.984375 C 39.171875 -56.128906 40.925781 -57.882812 43.070312 -57.882812 L 83.996094 -57.882812 C 86.140625 -57.882812 87.894531 -59.441406 87.894531 -61.585938 L 87.894531 -74.644531 C 87.894531 -76.785156 86.140625 -78.34375 83.996094 -78.34375 L 43.070312 -78.34375 C 40.925781 -78.34375 39.171875 -80.097656 39.171875 -82.242188 C 39.171875 -94.132812 39.367188 -103.875 39.5625 -111.867188 C 39.5625 -114.011719 41.316406 -115.765625 43.265625 -115.765625 L 94.328125 -115.765625 C 96.46875 -115.765625 98.222656 -117.324219 98.222656 -119.46875 Z M 98.222656 -119.46875 "/></g></g></g><g fill="#3d3d3d" fill-opacity="1"><g transform="translate(960.154873, 198.756894)"><g><path d="M 99.976562 0 C 102.316406 0 104.265625 -1.949219 103.875 -4.289062 C 103.292969 -9.550781 102.316406 -19.878906 102.316406 -33.714844 C 102.316406 -48.332031 94.910156 -56.90625 84.972656 -61.78125 C 83.800781 -62.363281 83.800781 -63.921875 84.972656 -64.507812 C 95.691406 -70.160156 103.292969 -80.097656 103.292969 -95.300781 C 103.292969 -128.820312 81.464844 -136.226562 55.933594 -136.226562 L 40.148438 -136.226562 L 40.148438 -136.421875 L 13.449219 -136.421875 C 11.304688 -136.421875 9.550781 -134.472656 9.746094 -132.328125 C 9.9375 -123.949219 10.523438 -102.121094 10.523438 -68.210938 C 10.523438 -34.300781 9.9375 -12.277344 9.746094 -3.898438 C 9.550781 -1.753906 11.304688 0 13.449219 0 L 36.25 0 C 38.394531 0 40.148438 -1.753906 39.953125 -3.898438 C 39.757812 -10.523438 39.367188 -25.726562 39.171875 -48.527344 C 39.171875 -50.671875 40.925781 -52.425781 43.070312 -52.425781 L 55.152344 -52.425781 C 68.015625 -52.425781 71.523438 -42.484375 71.523438 -33.910156 L 71.523438 -3.703125 C 71.523438 -1.558594 73.277344 0 75.421875 0 Z M 56.324219 -115.765625 C 62.363281 -115.765625 72.695312 -111.085938 72.695312 -95.300781 C 72.695312 -86.53125 69.1875 -73.082031 56.324219 -73.082031 L 43.070312 -73.082031 C 40.925781 -73.082031 39.171875 -74.835938 39.171875 -76.980469 C 39.171875 -91.011719 39.367188 -102.707031 39.5625 -111.867188 C 39.5625 -114.011719 41.316406 -115.765625 43.460938 -115.765625 Z M 56.324219 -115.765625 "/></g></g></g></svg>