<svg width="520px" height="520px" viewBox="0 0 520 520" version="1.1" xmlns="http://www.w3.org/2000/svg"
  xmlns:xlink="http://www.w3.org/1999/xlink">
  <defs>
    <linearGradient x1="79.522243%" y1="90.2162833%" x2="20.2393168%" y2="14.1534967%" id="linearGradient-wgi-cutmpa-1">
      <stop stop-color="#AA1A14" offset="0%"></stop>
      <stop stop-color="#500C09" offset="52.2918488%"></stop>
      <stop stop-color="#000000" offset="100%"></stop>
    </linearGradient>
  </defs>
  <g id="Page-1" stroke="none" stroke-width="1" fill="none" fill-rule="evenodd">
    <g id="Group" transform="translate(10.000000, 10.000000)">
      <circle id="Oval" stroke="#FFFFFF" stroke-width="20" fill="url(#linearGradient-wgi-cutmpa-1)" cx="250" cy="250"
        r="250"></circle>
      <path
        d="M75.1959031,351.424582 C75.2981028,351.614763 75.4879033,351.843955 75.7653032,351.843955 L156.946236,352 C157.019235,352 157.082502,351.98537 157.145769,351.946359 L157.184702,351.926853 C157.345302,351.834201 157.501035,351.639145 157.593502,351.4002 L178.559119,296.589281 L199.558803,239.252379 L201.447071,244.372616 L221.56102,299.27131 C221.867621,300.114931 221.921153,301.041449 221.711887,301.899698 L280,301.899698 L228.559293,167.364249 L221.380954,148.594923 C221.244687,148.234068 220.99162,148 220.733687,148 L177.498184,148 C177.240251,148 176.987184,148.234068 176.846051,148.594923 L118.008004,302.470239 C117.50187,303.791748 116.411736,304.645121 115.234002,304.645121 L92.7743171,304.684132 C92.5212502,304.684132 92.2681833,304.923076 92.1319166,305.279055 L75.1083036,350.02505 C74.9039028,350.571209 75.0207029,351.107616 75.1959031,351.424582 Z M343.456019,352 C343.199368,352 342.947558,351.765932 342.811968,351.405077 L272.208411,165.837931 L266.111711,149.809151 C265.903484,149.267868 266.019703,148.736339 266.189191,148.414495 C266.295727,148.224316 266.479741,148 266.755762,148 L323.011012,148 C323.26282,148 323.514631,148.234068 323.655063,148.590047 L382.205654,302.475116 C382.709273,303.791748 383.793992,304.645121 384.970717,304.645121 L407.309141,304.684132 C407.565793,304.684132 407.817603,304.923076 407.953192,305.283932 L424.892234,350.02505 C425.09562,350.571209 424.9794,351.107616 424.80507,351.424582 C424.698535,351.619639 424.514521,351.843955 424.238499,351.843955 L400.214887,351.804943 L399.924337,351.946359 C399.8517,351.980494 399.783905,352 399.716111,352 L343.456019,352"
        id="Shape" fill="#FFFFFF" fill-rule="nonzero"></path>
    </g>
  </g>
</svg>